<?xml version="1.0" encoding="UTF-8" standalone="no"?>
<!-- Created with Inkscape (http://www.inkscape.org/) -->

<svg
   xmlns:dc="http://purl.org/dc/elements/1.1/"
   xmlns:cc="http://creativecommons.org/ns#"
   xmlns:rdf="http://www.w3.org/1999/02/22-rdf-syntax-ns#"
   xmlns:svg="http://www.w3.org/2000/svg"
   xmlns="http://www.w3.org/2000/svg"
   xmlns:sodipodi="http://sodipodi.sourceforge.net/DTD/sodipodi-0.dtd"
   xmlns:inkscape="http://www.inkscape.org/namespaces/inkscape"
   width="256"
   height="256"
   id="svg3787"
   version="1.1"
   inkscape:version="0.48.4 r9939"
   sodipodi:docname="New document 1">
  <defs
     id="defs3789" />
  <sodipodi:namedview
     id="base"
     pagecolor="#ffffff"
     bordercolor="#666666"
     borderopacity="1.0"
     inkscape:pageopacity="0.0"
     inkscape:pageshadow="2"
     inkscape:zoom="1.979899"
     inkscape:cx="296.71176"
     inkscape:cy="85.844444"
     inkscape:document-units="px"
     inkscape:current-layer="layer1"
     showgrid="false"
     inkscape:snap-bbox="true"
     inkscape:bbox-paths="true"
     inkscape:bbox-nodes="true"
     inkscape:snap-bbox-edge-midpoints="false"
     inkscape:window-width="1920"
     inkscape:window-height="1027"
     inkscape:window-x="-8"
     inkscape:window-y="-8"
     inkscape:window-maximized="1" />
  <metadata
     id="metadata3792">
    <rdf:RDF>
      <cc:Work
         rdf:about="">
        <dc:format>image/svg+xml</dc:format>
        <dc:type
           rdf:resource="http://purl.org/dc/dcmitype/StillImage" />
        <dc:title></dc:title>
      </cc:Work>
    </rdf:RDF>
  </metadata>
  <g
     inkscape:label="Layer 1"
     inkscape:groupmode="layer"
     id="layer1"
     transform="translate(0,-796.36218)">
    <g
       id="g3027"
       transform="translate(0,-10e-6)">
      <path
         style="fill:#ffffff"
         d="m 0,924.36218 0,-128 128,0 128,0 0,128 0,128.00002 -128,0 -128,0 0,-128.00002 z"
         id="path3059"
         inkscape:connector-curvature="0" />
      <path
         style="fill:#b3c788"
         d="m 80,1012.3622 0,-8 -16,0 -16,0 0,-8.00002 0,-8 -8,0 -8,0 0,-8 0,-8 8,0 8,0 0,-8 0,-8 -8,0 -8,0 0,-16 0,-16 8,0 8,0 0,-8 0,-8 8,0 8,0 0,-16 0,-16 8,0 8,0 0,-16 0,-16 8,0 8,0 0,-8 0,-8 8,0 8,0 0,8 0,8 16,0 16,0 0,-8 0,-8 8,0 8,0 0,8 0,8 8,0 8,0 0,16 0,16 8,0 8,0 0,16 0,16 8,0 8,0 0,8 0,8 8,0 8,0 0,16 0,16 -8,0 -8,0 0,8 0,8 8,0 8,0 0,8 0,8 -8,0 -8,0 0,8 0,8.00002 -16,0 -16,0 0,8 0,8 -8,0 -8,0 0,-8 0,-8 -8,0 -8,0 0,8 0,8 -16,0 -16,0 0,-8 0,-8 -8,0 -8,0 0,8 0,8 -8,0 -8,0 0,-8 z m 32,-32.00002 0,-8 -8,0 -8,0 0,8 0,8 8,0 8,0 0,-8 z m 48,0 0,-8 -8,0 -8,0 0,8 0,8 8,0 8,0 0,-8 z"
         id="path3057"
         inkscape:connector-curvature="0" />
      <path
         style="fill:#81bdb1"
         d="m 80,1012.3622 0,-8 -16,0 -16,0 0,-8.00002 0,-8 -8,0 -8,0 0,-8 0,-8 8,0 8,0 0,-8 0,-8 -8,0 -8,0 0,-16 0,-16 8,0 8,0 0,-8 0,-8 8,0 8,0 0,-16 0,-16 8,0 8,0 0,-16 0,-16 8,0 8,0 0,-8 0,-8 8,0 8,0 0,8 0,8 16,0 16,0 0,-8 0,-8 8,0 8,0 0,8 0,8 8,0 8,0 0,16 0,16 8,0 8,0 0,16 0,16 8,0 8,0 0,8 0,8 8,0 8,0 0,16 0,16 -8,0 -8,0 0,8 0,8 8,0 8,0 0,8 0,8 -8,0 -8,0 0,8 0,8.00002 -16,0 -16,0 0,8 0,8 -8,0 -8,0 0,-8 0,-8 -8,0 -8,0 0,8 0,8 -16,0 -16,0 0,-8 0,-8 -8,0 -8,0 0,8 0,8 -8,0 -8,0 0,-8 z m 32,-32.00002 0,-8 -8,0 -8,0 0,8 0,8 8,0 8,0 0,-8 z m 48,0 0,-8 -8,0 -8,0 0,8 0,8 8,0 8,0 0,-8 z m -48,-48 0,-8 -8,0 -8,0 0,8 0,8 8,0 8,0 0,-8 z m 48,0 0,-8 -8,0 -8,0 0,8 0,8 8,0 8,0 0,-8 z"
         id="path3055"
         inkscape:connector-curvature="0" />
      <path
         style="fill:#abc770"
         d="m 80,1012.3622 0,-8 -16,0 -16,0 0,-8.00002 0,-8 -8,0 -8,0 0,-8 0,-8 8,0 8,0 0,-8 0,-8 -8,0 -8,0 0,-16 0,-16 8,0 8,0 0,-8 0,-8 8,0 8,0 0,-16 0,-16 8,0 8,0 0,-16 0,-16 8,0 8,0 0,-8 0,-8 8,0 8,0 0,8 0,8 16,0 16,0 0,-8 0,-8 8,0 8,0 0,8 0,8 8,0 8,0 0,16 0,16 8,0 8,0 0,16 0,16 8,0 8,0 0,8 0,8 8,0 8,0 0,16 0,16 -8,0 -8,0 0,8 0,8 8,0 8,0 0,8 0,8 -8,0 -8,0 0,8 0,8.00002 -16,0 -16,0 0,8 0,8 -8,0 -8,0 0,-8 0,-8 -8,0 -8,0 0,8 0,8 -16,0 -16,0 0,-8 0,-8 -8,0 -8,0 0,8 0,8 -8,0 -8,0 0,-8 z m 64,-16.00002 0,-8 8,0 8,0 0,-8 0,-8 -8,0 -8,0 0,8 0,8 -16,0 -16,0 0,-8 0,-8 -8,0 -8,0 0,8 0,8 8,0 8,0 0,8 0,8.00002 16,0 16,0 0,-8.00002 z m -32,-64 0,-8 -8,0 -8,0 0,8 0,8 8,0 8,0 0,-8 z m 48,0 0,-8 -8,0 -8,0 0,8 0,8 8,0 8,0 0,-8 z"
         id="path3053"
         inkscape:connector-curvature="0" />
      <path
         style="fill:#859f79"
         d="m 80,1012.3622 0,-8 -16,0 -16,0 0,-8.00002 0,-8 -8,0 -8,0 0,-8 0,-8 8,0 8,0 0,-8 0,-8 -8,0 -8,0 0,-16 0,-16 8,0 8,0 0,-8 0,-8 8,0 8,0 0,-16 0,-16 8,0 8,0 0,-16 0,-16 8,0 8,0 0,-8 0,-8 8,0 8,0 0,8 0,8 16,0 16,0 0,-8 0,-8 8,0 8,0 0,8 0,8 8,0 8,0 0,16 0,16 8,0 8,0 0,16 0,16 8,0 8,0 0,8 0,8 8,0 8,0 0,16 0,16 -8,0 -8,0 0,8 0,8 8,0 8,0 0,8 0,8 -8,0 -8,0 0,8 0,8.00002 -16,0 -16,0 0,8 0,8 -8,0 -8,0 0,-8 0,-8 -8,0 -8,0 0,8 0,8 -16,0 -16,0 0,-8 0,-8 -8,0 -8,0 0,8 0,8 -8,0 -8,0 0,-8 z m 64,-16.00002 0,-8 8,0 8,0 0,-32 0,-32 -8,0 -8,0 0,32 0,32 -16,0 -16,0 0,-32 0,-32 -8,0 -8,0 0,32 0,32 8,0 8,0 0,8 0,8.00002 16,0 16,0 0,-8.00002 z"
         id="path3051"
         inkscape:connector-curvature="0" />
      <path
         style="fill:#799f68"
         d="m 80,1012.3622 0,-8 -16,0 -16,0 0,-8.00002 0,-8 -8,0 -8,0 0,-8 0,-8 8,0 8,0 0,-8 0,-8 -8,0 -8,0 0,-16 0,-16 8,0 8,0 0,-8 0,-8 8,0 8,0 0,-16 0,-16 8,0 8,0 0,-16 0,-16 8,0 8,0 0,-8 0,-8 8,0 8,0 0,8 0,8 16,0 16,0 0,-8 0,-8 8,0 8,0 0,8 0,8 8,0 8,0 0,16 0,16 8,0 8,0 0,16 0,16 8,0 8,0 0,8 0,8 8,0 8,0 0,16 0,16 -8,0 -8,0 0,8 0,8 8,0 8,0 0,8 0,8 -8,0 -8,0 0,8 0,8.00002 -16,0 -16,0 0,8 0,8 -8,0 -8,0 0,-8 0,-8 -8,0 -8,0 0,8 0,8 -16,0 -16,0 0,-8 0,-8 -8,0 -8,0 0,8 0,8 -8,0 -8,0 0,-8 z m 64,-16.00002 0,-8 8,0 8,0 0,-40 0,-40 -8,0 -8,0 0,40 0,40 -16,0 -16,0 0,-40 0,-40 -8,0 -8,0 0,40 0,40 8,0 8,0 0,8 0,8.00002 16,0 16,0 0,-8.00002 z m -32,-144 0,-8 -8,0 -8,0 0,8 0,8 8,0 8,0 0,-8 z m 48,0 0,-8 -8,0 -8,0 0,8 0,8 8,0 8,0 0,-8 z"
         id="path3049"
         inkscape:connector-curvature="0" />
      <path
         style="fill:#588179"
         d="m 80,1012.3622 0,-8 -16,0 -16,0 0,-8.00002 0,-8 -8,0 -8,0 0,-8 0,-8 8,0 8,0 0,-8 0,-8 -8,0 -8,0 0,-16 0,-16 8,0 8,0 0,-8 0,-8 8,0 8,0 0,-16 0,-16 8,0 8,0 0,-16 0,-16 8,0 8,0 0,-8 0,-8 8,0 8,0 0,8 0,8 16,0 16,0 0,-8 0,-8 8,0 8,0 0,8 0,8 8,0 8,0 0,16 0,16 8,0 8,0 0,16 0,16 8,0 8,0 0,8 0,8 8,0 8,0 0,16 0,16 -8,0 -8,0 0,8 0,8 8,0 8,0 0,8 0,8 -8,0 -8,0 0,8 0,8.00002 -16,0 -16,0 0,8 0,8 -8,0 -8,0 0,-8 0,-8 -8,0 -8,0 0,8 0,8 -16,0 -16,0 0,-8 0,-8 -8,0 -8,0 0,8 0,8 -8,0 -8,0 0,-8 z m 64,-16.00002 0,-8 8,0 8,0 0,-72 0,-72 -8,0 -8,0 0,72 0,72 -16,0 -16,0 0,-72 0,-72 -8,0 -8,0 0,72 0,72 8,0 8,0 0,8 0,8.00002 16,0 16,0 0,-8.00002 z"
         id="path3047"
         inkscape:connector-curvature="0" />
      <path
         style="fill:#648158"
         d="m 80,1012.3622 0,-8 -16,0 -16,0 0,-8.00002 0,-8 -8,0 -8,0 0,-8 0,-8 8,0 8,0 0,-8 0,-8 -8,0 -8,0 0,-16 0,-16 8,0 8,0 0,-8 0,-8 8,0 8,0 0,-16 0,-16 8,0 8,0 0,-16 0,-16 8,0 8,0 0,-8 0,-8 8,0 8,0 0,8 0,8 16,0 16,0 0,-8 0,-8 8,0 8,0 0,8 0,8 8,0 8,0 0,16 0,16 8,0 8,0 0,16 0,16 8,0 8,0 0,8 0,8 8,0 8,0 0,16 0,16 -8,0 -8,0 0,8 0,8 8,0 8,0 0,8 0,8 -8,0 -8,0 0,8 0,8.00002 -16,0 -16,0 0,8 0,8 -8,0 -8,0 0,-8 0,-8 -8,0 -8,0 0,8 0,8 -16,0 -16,0 0,-8 0,-8 -8,0 -8,0 0,8 0,8 -8,0 -8,0 0,-8 z m 16,-16.00002 0,-8 8,0 8,0 0,8 0,8.00002 16,0 16,0 0,-8.00002 0,-8 8,0 8,0 0,8 0,8.00002 8,0 8,0 0,-8.00002 0,-8 -8,0 -8,0 0,-72 0,-72 -8,0 -8,0 0,72 0,72 -16,0 -16,0 0,-72 0,-72 -8,0 -8,0 0,72 0,72 -8,0 -8,0 0,8 0,8.00002 8,0 8,0 0,-8.00002 z"
         id="path3045"
         inkscape:connector-curvature="0" />
      <path
         style="fill:#816a4e"
         d="m 80,1012.3622 0,-8 -16,0 -16,0 0,-8.00002 0,-8 -8,0 -8,0 0,-8 0,-8 8,0 8,0 0,-8 0,-8 -8,0 -8,0 0,-16 0,-16 8,0 8,0 0,-8 0,-8 8,0 8,0 0,-16 0,-16 8,0 8,0 0,-16 0,-16 8,0 8,0 0,-8 0,-8 8,0 8,0 0,8 0,8 16,0 16,0 0,-8 0,-8 8,0 8,0 0,8 0,8 8,0 8,0 0,16 0,16 8,0 8,0 0,16 0,16 8,0 8,0 0,8 0,8 8,0 8,0 0,16 0,16 -8,0 -8,0 0,8 0,8 8,0 8,0 0,8 0,8 -8,0 -8,0 0,8 0,8.00002 -16,0 -16,0 0,8 0,8 -8,0 -8,0 0,-8 0,-8 -8,0 -8,0 0,8 0,8 -16,0 -16,0 0,-8 0,-8 -8,0 -8,0 0,8 0,8 -8,0 -8,0 0,-8 z m 16,-16.00002 0,-8 8,0 8,0 0,8 0,8.00002 16,0 16,0 0,-8.00002 0,-8 8,0 8,0 0,8 0,8.00002 8,0 8,0 0,-8.00002 0,-8 -8,0 -8,0 0,-40 0,-40 8,0 8,0 0,-8 0,-8 -8,0 -8,0 0,-24 0,-24 -8,0 -8,0 0,72 0,72 -16,0 -16,0 0,-72 0,-72 -8,0 -8,0 0,24 0,24 -8,0 -8,0 0,8 0,8 8,0 8,0 0,40 0,40 -8,0 -8,0 0,8 0,8.00002 8,0 8,0 0,-8.00002 z"
         id="path3043"
         inkscape:connector-curvature="0" />
      <path
         style="fill:#5d814e"
         d="m 80,1012.3622 0,-8 -16,0 -16,0 0,-8.00002 0,-8 -8,0 -8,0 0,-8 0,-8 8,0 8,0 0,-8 0,-8 -8,0 -8,0 0,-16 0,-16 8,0 8,0 0,-8 0,-8 8,0 8,0 0,-16 0,-16 8,0 8,0 0,-16 0,-16 8,0 8,0 0,-8 0,-8 8,0 8,0 0,8 0,8 16,0 16,0 0,-8 0,-8 8,0 8,0 0,8 0,8 8,0 8,0 0,16 0,16 8,0 8,0 0,16 0,16 8,0 8,0 0,8 0,8 8,0 8,0 0,16 0,16 -8,0 -8,0 0,8 0,8 8,0 8,0 0,8 0,8 -8,0 -8,0 0,8 0,8.00002 -16,0 -16,0 0,8 0,8 -8,0 -8,0 0,-8 0,-8 -8,0 -8,0 0,8 0,8 -16,0 -16,0 0,-8 0,-8 -8,0 -8,0 0,8 0,8 -8,0 -8,0 0,-8 z m 16,-16.00002 0,-8 8,0 8,0 0,8 0,8.00002 16,0 16,0 0,-8.00002 0,-8 8,0 8,0 0,8 0,8.00002 8,0 8,0 0,-8.00002 0,-8 -8,0 -8,0 0,-16 0,-16 8,0 8,0 0,-8 0,-8 -8,0 -8,0 0,-16 0,-16 8,0 8,0 0,-8 0,-8 -8,0 -8,0 0,-24 0,-24 -8,0 -8,0 0,72 0,72 -16,0 -16,0 0,-72 0,-72 -8,0 -8,0 0,24 0,24 -8,0 -8,0 0,8 0,8 8,0 8,0 0,16 0,16 -8,0 -8,0 0,8 0,8 8,0 8,0 0,16 0,16 -8,0 -8,0 0,8 0,8.00002 8,0 8,0 0,-8.00002 z"
         id="path3041"
         inkscape:connector-curvature="0" />
      <path
         style="fill:#635543"
         d="m 80,1012.3622 0,-8 -16,0 -16,0 0,-8.00002 0,-8 -8,0 -8,0 0,-8 0,-8 8,0 8,0 0,-8 0,-8 -8,0 -8,0 0,-16 0,-16 8,0 8,0 0,-8 0,-8 8,0 8,0 0,-16 0,-16 8,0 8,0 0,-16 0,-16 8,0 8,0 0,-8 0,-8 8,0 8,0 0,8 0,8 16,0 16,0 0,-8 0,-8 8,0 8,0 0,8 0,8 8,0 8,0 0,16 0,16 8,0 8,0 0,16 0,16 8,0 8,0 0,8 0,8 8,0 8,0 0,16 0,16 -8,0 -8,0 0,8 0,8 8,0 8,0 0,8 0,8 -8,0 -8,0 0,8 0,8.00002 -16,0 -16,0 0,8 0,8 -8,0 -8,0 0,-8 0,-8 -8,0 -8,0 0,8 0,8 -16,0 -16,0 0,-8 0,-8 -8,0 -8,0 0,8 0,8 -8,0 -8,0 0,-8 z m 16,-16.00002 0,-8 8,0 8,0 0,8 0,8.00002 16,0 16,0 0,-8.00002 0,-8 8,0 8,0 0,8 0,8.00002 8,0 8,0 0,-8.00002 0,-8 -8,0 -8,0 0,-16 0,-16 8,0 8,0 0,-8 0,-8 -8,0 -8,0 0,-16 0,-16 8,0 8,0 0,-16 0,-16 -8,0 -8,0 0,-16 0,-16 -8,0 -8,0 0,72 0,72 -16,0 -16,0 0,-72 0,-72 -8,0 -8,0 0,16 0,16 -8,0 -8,0 0,16 0,16 8,0 8,0 0,16 0,16 -8,0 -8,0 0,8 0,8 8,0 8,0 0,16 0,16 -8,0 -8,0 0,8 0,8.00002 8,0 8,0 0,-8.00002 z"
         id="path3039"
         inkscape:connector-curvature="0" />
      <path
         style="fill:#3b635b"
         d="m 80,1012.3622 0,-8 -16,0 -16,0 0,-8.00002 0,-8 -8,0 -8,0 0,-8 0,-8 8,0 8,0 0,-8 0,-8 -8,0 -8,0 0,-16 0,-16 8,0 8,0 0,-8 0,-8 8,0 8,0 0,-16 0,-16 8,0 8,0 0,-16 0,-16 8,0 8,0 0,-8 0,-8 8,0 8,0 0,8 0,8 16,0 16,0 0,-8 0,-8 8,0 8,0 0,8 0,8 8,0 8,0 0,16 0,16 8,0 8,0 0,16 0,16 8,0 8,0 0,8 0,8 8,0 8,0 0,16 0,16 -8,0 -8,0 0,8 0,8 8,0 8,0 0,8 0,8 -8,0 -8,0 0,8 0,8.00002 -16,0 -16,0 0,8 0,8 -8,0 -8,0 0,-8 0,-8 -8,0 -8,0 0,8 0,8 -16,0 -16,0 0,-8 0,-8 -8,0 -8,0 0,8 0,8 -8,0 -8,0 0,-8 z m 16,-16.00002 0,-8 8,0 8,0 0,8 0,8.00002 16,0 16,0 0,-8.00002 0,-8 8,0 8,0 0,8 0,8.00002 8,0 8,0 0,-8.00002 0,-8 -8,0 -8,0 0,-16 0,-16 8,0 8,0 0,-8 0,-8 8,0 8,0 0,-8 0,-8 -8,0 -8,0 0,8 0,8 -8,0 -8,0 0,-16 0,-16 8,0 8,0 0,-16 0,-16 -8,0 -8,0 0,-16 0,-16 -8,0 -8,0 0,72 0,72 -16,0 -16,0 0,-72 0,-72 -8,0 -8,0 0,16 0,16 -8,0 -8,0 0,16 0,16 8,0 8,0 0,16 0,16 -8,0 -8,0 0,-8 0,-8 -8,0 -8,0 0,8 0,8 8,0 8,0 0,8 0,8 8,0 8,0 0,16 0,16 -8,0 -8,0 0,8 0,8.00002 8,0 8,0 0,-8.00002 z"
         id="path3037"
         inkscape:connector-curvature="0" />
      <path
         style="fill:#634f37"
         d="m 80,1012.3622 0,-8 -16,0 -16,0 0,-8.00002 0,-8 -8,0 -8,0 0,-8 0,-8 8,0 8,0 0,-8 0,-8 -8,0 -8,0 0,-16 0,-16 8,0 8,0 0,-8 0,-8 8,0 8,0 0,-16 0,-16 8,0 8,0 0,-16 0,-16 8,0 8,0 0,-8 0,-8 8,0 8,0 0,8 0,8 16,0 16,0 0,-8 0,-8 8,0 8,0 0,8 0,8 8,0 8,0 0,16 0,16 8,0 8,0 0,16 0,16 8,0 8,0 0,8 0,8 8,0 8,0 0,16 0,16 -8,0 -8,0 0,8 0,8 8,0 8,0 0,8 0,8 -8,0 -8,0 0,8 0,8.00002 -16,0 -16,0 0,8 0,8 -8,0 -8,0 0,-8 0,-8 -8,0 -8,0 0,8 0,8 -16,0 -16,0 0,-8 0,-8 -8,0 -8,0 0,8 0,8 -8,0 -8,0 0,-8 z m 16,-16.00002 0,-8 8,0 8,0 0,8 0,8.00002 16,0 16,0 0,-8.00002 0,-8 8,0 8,0 0,8 0,8.00002 8,0 8,0 0,-8.00002 0,-8 8,0 8,0 0,-8 0,-8 -8,0 -8,0 0,8 0,8 -8,0 -8,0 0,-16 0,-16 8,0 8,0 0,-8 0,-8 8,0 8,0 0,-8 0,-8 -8,0 -8,0 0,8 0,8 -8,0 -8,0 0,-16 0,-16 8,0 8,0 0,-16 0,-16 -8,0 -8,0 0,-16 0,-16 -8,0 -8,0 0,72 0,72 -16,0 -16,0 0,-72 0,-72 -8,0 -8,0 0,16 0,16 -8,0 -8,0 0,16 0,16 8,0 8,0 0,16 0,16 -8,0 -8,0 0,-8 0,-8 -8,0 -8,0 0,8 0,8 8,0 8,0 0,8 0,8 8,0 8,0 0,16 0,16 -8,0 -8,0 0,-8 0,-8 -8,0 -8,0 0,8 0,8 8,0 8,0 0,8 0,8.00002 8,0 8,0 0,-8.00002 z"
         id="path3035"
         inkscape:connector-curvature="0" />
      <path
         style="fill:#29453f"
         d="m 80,1012.3622 0,-8 -16,0 -16,0 0,-8.00002 0,-8 -8,0 -8,0 0,-8 0,-8 8,0 8,0 0,-8 0,-8 -8,0 -8,0 0,-16 0,-16 8,0 8,0 0,-8 0,-8 8,0 8,0 0,-16 0,-16 8,0 8,0 0,-16 0,-16 8,0 8,0 0,-8 0,-8 8,0 8,0 0,8 0,8 16,0 16,0 0,-8 0,-8 8,0 8,0 0,8 0,8 8,0 8,0 0,16 0,16 8,0 8,0 0,16 0,16 8,0 8,0 0,8 0,8 8,0 8,0 0,16 0,16 -8,0 -8,0 0,8 0,8 8,0 8,0 0,8 0,8 -8,0 -8,0 0,8 0,8.00002 -16,0 -16,0 0,8 0,8 -8,0 -8,0 0,-8 0,-8 -8,0 -8,0 0,8 0,8 -16,0 -16,0 0,-8 0,-8 -8,0 -8,0 0,8 0,8 -8,0 -8,0 0,-8 z m 16,-16.00002 0,-8 8,0 8,0 0,8 0,8.00002 16,0 16,0 0,-8.00002 0,-8 8,0 8,0 0,8 0,8.00002 8,0 8,0 0,-8.00002 0,-8 8,0 8,0 0,-32 0,-32 -8,0 -8,0 0,8 0,8 -8,0 -8,0 0,-16 0,-16 8,0 8,0 0,-16 0,-16 -8,0 -8,0 0,-16 0,-16 -8,0 -8,0 0,72 0,72 -16,0 -16,0 0,-72 0,-72 -8,0 -8,0 0,16 0,16 -8,0 -8,0 0,16 0,16 8,0 8,0 0,16 0,16 -8,0 -8,0 0,-8 0,-8 -8,0 -8,0 0,32 0,32 8,0 8,0 0,8 0,8.00002 8,0 8,0 0,-8.00002 z m -16,-24 0,-16 8,0 8,0 0,16 0,16 -8,0 -8,0 0,-16 z m 80,0 0,-16 8,0 8,0 0,16 0,16 -8,0 -8,0 0,-16 z"
         id="path3033"
         inkscape:connector-curvature="0" />
      <path
         style="fill:#45392c"
         d="m 80,1012.3622 0,-8 -16,0 -16,0 0,-8.00002 0,-8 -8,0 -8,0 0,-8 0,-8 8,0 8,0 0,-8 0,-8 -8,0 -8,0 0,-16 0,-16 8,0 8,0 0,-8 0,-8 8,0 8,0 0,-16 0,-16 8,0 8,0 0,-16 0,-16 8,0 8,0 0,-8 0,-8 8,0 8,0 0,8 0,8 16,0 16,0 0,-8 0,-8 8,0 8,0 0,8 0,8 8,0 8,0 0,16 0,16 8,0 8,0 0,16 0,16 8,0 8,0 0,8 0,8 8,0 8,0 0,16 0,16 -8,0 -8,0 0,8 0,8 8,0 8,0 0,8 0,8 -8,0 -8,0 0,8 0,8.00002 -16,0 -16,0 0,8 0,8 -8,0 -8,0 0,-8 0,-8 -8,0 -8,0 0,8 0,8 -16,0 -16,0 0,-8 0,-8 -8,0 -8,0 0,8 0,8 -8,0 -8,0 0,-8 z m 16,-16.00002 0,-8 8,0 8,0 0,8 0,8.00002 16,0 16,0 0,-8.00002 0,-8 8,0 8,0 0,8 0,8.00002 8,0 8,0 0,-8.00002 0,-8 16,0 16,0 0,-8 0,-8 -8,0 -8,0 0,-24 0,-24 -8,0 -8,0 0,8 0,8 -8,0 -8,0 0,-16 0,-16 8,0 8,0 0,-16 0,-16 -8,0 -8,0 0,-16 0,-16 -8,0 -8,0 0,72 0,72 -16,0 -16,0 0,-72 0,-72 -8,0 -8,0 0,16 0,16 -8,0 -8,0 0,16 0,16 8,0 8,0 0,16 0,16 -8,0 -8,0 0,-8 0,-8 -8,0 -8,0 0,24 0,24 -8,0 -8,0 0,8 0,8 16,0 16,0 0,8 0,8.00002 8,0 8,0 0,-8.00002 z m -16,-24 0,-16 8,0 8,0 0,16 0,16 -8,0 -8,0 0,-16 z m 80,0 0,-16 8,0 8,0 0,16 0,16 -8,0 -8,0 0,-16 z"
         id="path3031"
         inkscape:connector-curvature="0" />
      <path
         style="fill:#000000"
         d="m 80,1012.3622 0,-8 -16,0 -16,0 0,-8.00002 0,-8 -8,0 -8,0 0,-8 0,-8 8,0 8,0 0,-8 0,-8 -8,0 -8,0 0,-16 0,-16 8,0 8,0 0,-8 0,-8 8,0 8,0 0,-16 0,-16 8,0 8,0 0,-16 0,-16 8,0 8,0 0,-8 0,-8 8,0 8,0 0,8 0,8 16,0 16,0 0,-8 0,-8 8,0 8,0 0,8 0,8 8,0 8,0 0,16 0,16 8,0 8,0 0,16 0,16 8,0 8,0 0,8 0,8 8,0 8,0 0,16 0,16 -8,0 -8,0 0,8 0,8 8,0 8,0 0,8 0,8 -8,0 -8,0 0,8 0,8.00002 -16,0 -16,0 0,8 0,8 -8,0 -8,0 0,-8 0,-8 -8,0 -8,0 0,8 0,8 -16,0 -16,0 0,-8 0,-8 -8,0 -8,0 0,8 0,8 -8,0 -8,0 0,-8 z m 16,-16.00002 0,-8 8,0 8,0 0,8 0,8.00002 16,0 16,0 0,-8.00002 0,-8 8,0 8,0 0,8 0,8.00002 8,0 8,0 0,-8.00002 0,-8 16,0 16,0 0,-8 0,-8 -8,0 -8,0 0,-8 0,-8 8,0 8,0 0,-16 0,-16 -16,0 -16,0 0,8 0,8 -8,0 -8,0 0,-16 0,-16 8,0 8,0 0,-16 0,-16 -8,0 -8,0 0,-16 0,-16 -8,0 -8,0 0,72 0,72 -16,0 -16,0 0,-72 0,-72 -8,0 -8,0 0,16 0,16 -8,0 -8,0 0,16 0,16 8,0 8,0 0,16 0,16 -8,0 -8,0 0,-8 0,-8 -16,0 -16,0 0,16 0,16 8,0 8,0 0,8 0,8 -8,0 -8,0 0,8 0,8 16,0 16,0 0,8 0,8.00002 8,0 8,0 0,-8.00002 z m -16,-24 0,-16 8,0 8,0 0,16 0,16 -8,0 -8,0 0,-16 z m 80,0 0,-16 8,0 8,0 0,16 0,16 -8,0 -8,0 0,-16 z"
         id="path3029"
         inkscape:connector-curvature="0" />
    </g>
  </g>
</svg>
